ffmpeg version 2025-05-05-git-f4e72eb5a3-essentials_build-www.gyan.dev Copyright (c) 2000-2025 the FFmpeg developers
  built with gcc 15.1.0 (Rev1, Built by MSYS2 project)
  configuration: --enable-gpl --enable-version3 --enable-static --disable-w32threads --disable-autodetect --enable-fontconfig --enable-iconv --enable-gnutls --enable-libxml2 --enable-gmp --enable-bzlib --enable-lzma --enable-zlib --enable-libsrt --enable-libssh --enable-libzmq --enable-avisynth --enable-sdl2 --enable-libwebp --enable-libx264 --enable-libx265 --enable-libxvid --enable-libaom --enable-libopenjpeg --enable-libvpx --enable-mediafoundation --enable-libass --enable-libfreetype --enable-libfribidi --enable-libharfbuzz --enable-libvidstab --enable-libvmaf --enable-libzimg --enable-amf --enable-cuda-llvm --enable-cuvid --enable-dxva2 --enable-d3d11va --enable-d3d12va --enable-ffnvcodec --enable-libvpl --enable-nvdec --enable-nvenc --enable-vaapi --enable-libgme --enable-libopenmpt --enable-libopencore-amrwb --enable-libmp3lame --enable-libtheora --enable-libvo-amrwbenc --enable-libgsm --enable-libopencore-amrnb --enable-libopus --enable-libspeex --enable-libvorbis --enable-librubberband
  libavutil      60.  2.100 / 60.  2.100
  libavcodec     62.  3.101 / 62.  3.101
  libavformat    62.  0.102 / 62.  0.102
  libavdevice    62.  0.100 / 62.  0.100
  libavfilter    11.  0.100 / 11.  0.100
  libswscale      9.  0.100 /  9.  0.100
  libswresample   6.  0.100 /  6.  0.100
  libpostproc    59.  1.100 / 59.  1.100
[gdigrab @ 000002bdaef19600] Capturing whole desktop as 1920x1080x32 at (3440,0)
[gdigrab @ 000002bdaef19600] Stream #0: not enough frames to estimate rate; consider increasing probesize
Input #0, gdigrab, from 'desktop':
  Duration: N/A, start: 1747131452.038507, bitrate: 995334 kb/s
  Stream #0:0: Video: bmp, bgra, 1920x1080, 995334 kb/s, 15 fps, 1000k tbr, 1000k tbn, Start 1747131452.038507
[aist#1:0/pcm_s16le @ 000002bdaef33800] Guessed Channel Layout: stereo
Input #1, dshow, from 'audio=立体声混音 (Realtek(R) Audio)':
  Duration: N/A, start: 636136.538000, bitrate: 1411 kb/s
  Stream #1:0: Audio: pcm_s16le, 44100 Hz, stereo, s16, 1411 kb/s, Start 636136.538000
Stream mapping:
  Stream #0:0 -> #0:0 (bmp (native) -> hevc (libx265))
  Stream #1:0 -> #0:1 (pcm_s16le (native) -> aac (native))
Press [q] to stop, [?] for help
x265 [info]: HEVC encoder version 4.1+151-f8be463
x265 [info]: build info [Windows][GCC 15.1.0][64 bit] 8bit+10bit+12bit
x265 [info]: using cpu capabilities: MMX2 SSE2Fast LZCNT SSSE3 SSE4.2 AVX FMA3 BMI2 AVX2
x265 [info]: Main profile, Level-3.1 (Main tier)
x265 [info]: Thread pool created using 16 threads
x265 [info]: Slices                              : 1
x265 [info]: frame threads / pool features       : 4 / wpp(12 rows)
x265 [info]: Coding QT: max CU size, min CU size : 64 / 8
x265 [info]: Residual QT: max TU size, max depth : 32 / 1 inter / 1 intra
x265 [info]: ME / range / subpel / merge         : hex / 57 / 1 / 2
x265 [info]: Keyframe min / max / scenecut / bias  : 15 / 250 / 40 / 5.00 
x265 [info]: Lookahead / bframes / badapt        : 15 / 4 / 0
x265 [info]: b-pyramid / weightp / weightb       : 1 / 1 / 0
x265 [info]: References / ref-limit  cu / depth  : 2 / on / on
x265 [info]: AQ: mode / str / qg-size / cu-tree  : 2 / 1.0 / 32 / 1
x265 [info]: Rate Control / qCompress            : CRF-36.0 / 0.60
x265 [info]: tools: rd=2 psy-rd=2.00 early-skip rskip mode=1 signhide tmvp
x265 [info]: tools: fast-intra strong-intra-smoothing lslices=4 deblock sao
x265 [info]: tools: dhdr10-info
Output #0, matroska, to './videos\webVideos_2025-05-13_18-17-31.mkv':
  Metadata:
    encoder         : Lavf62.0.102
  Stream #0:0: Video: hevc (hvc1 / 0x31637668), yuv420p(tv, progressive), 1280x720, q=2-31, 15 fps, 1k tbn
    Metadata:
      encoder         : Lavc62.3.101 libx265
    Side data:
      cpb: bitrate max/min/avg: 0/0/0 buffer size: 0 vbv_delay: N/A
  Stream #0:1: Audio: aac (LC) ([255][0][0][0] / 0x00FF), 44100 Hz, stereo, fltp, 128 kb/s
    Metadata:
      encoder         : Lavc62.3.101 aac
elapsed=0:00:00.51 frame=    0 fps=0.0 q=0.0 size=       3KiB time=N/A bitrate=N/A dup=0 drop=5 speed=N/A    elapsed=0:00:01.02 frame=    0 fps=0.0 q=0.0 size=       3KiB time=N/A bitrate=N/A dup=0 drop=5 speed=N/A    elapsed=0:00:01.54 frame=    0 fps=0.0 q=0.0 size=       3KiB time=N/A bitrate=N/A dup=0 drop=5 speed=N/A    elapsed=0:00:02.06 frame=    7 fps=3.4 q=35.3 size=       3KiB time=00:00:01.06 bitrate=  23.7kbits/s dup=0 drop=5 speed=0.517x    elapsed=0:00:02.57 frame=   15 fps=5.8 q=42.0 size=       3KiB time=00:00:01.60 bitrate=  15.8kbits/s dup=0 drop=5 speed=0.621x    elapsed=0:00:03.09 frame=   22 fps=7.1 q=35.9 size=       3KiB time=00:00:02.06 bitrate=  12.3kbits/s dup=0 drop=5 speed=0.668x    elapsed=0:00:03.60 frame=   30 fps=8.3 q=41.9 size=       3KiB time=00:00:02.60 bitrate=   9.7kbits/s dup=0 drop=5 speed=0.721x    elapsed=0:00:04.12 frame=   38 fps=9.2 q=40.9 size=       3KiB time=00:00:03.13 bitrate=   8.1kbits/s dup=0 drop=5 speed=0.76x    elapsed=0:00:04.63 frame=   45 fps=9.7 q=42.1 size=       3KiB time=00:00:03.60 bitrate=   7.0kbits/s dup=0 drop=5 speed=0.776x    elapsed=0:00:05.15 frame=   53 fps= 10 q=40.9 size=       3KiB time=00:00:04.13 bitrate=   6.1kbits/s dup=0 drop=5 speed=0.802x    elapsed=0:00:05.67 frame=   60 fps= 11 q=41.8 size=       3KiB time=00:00:04.60 bitrate=   5.5kbits/s dup=0 drop=5 speed=0.811x    elapsed=0:00:06.18 frame=   68 fps= 11 q=40.7 size=     245KiB time=00:00:05.13 bitrate= 390.7kbits/s dup=0 drop=6 speed=0.83x    elapsed=0:00:06.70 frame=   76 fps= 11 q=41.3 size=     245KiB time=00:00:05.66 bitrate= 353.9kbits/s dup=0 drop=6 speed=0.845x    elapsed=0:00:07.21 frame=   83 fps= 12 q=40.4 size=     245KiB time=00:00:06.13 bitrate= 327.0kbits/s dup=0 drop=6 speed=0.85x    elapsed=0:00:07.73 frame=   91 fps= 12 q=41.7 size=     245KiB time=00:00:06.73 bitrate= 297.9kbits/s dup=0 drop=6 speed=0.871x    elapsed=0:00:08.24 frame=   99 fps= 12 q=41.2 size=     245KiB time=00:00:07.26 bitrate= 276.0kbits/s dup=0 drop=6 speed=0.881x    elapsed=0:00:08.76 frame=  106 fps= 12 q=41.7 size=     245KiB time=00:00:07.73 bitrate= 259.3kbits/s dup=0 drop=6 speed=0.882x    elapsed=0:00:09.27 frame=  114 fps= 12 q=41.6 size=     245KiB time=00:00:08.26 bitrate= 242.6kbits/s dup=0 drop=6 speed=0.891x    elapsed=0:00:09.79 frame=  122 fps= 12 q=35.8 size=     245KiB time=00:00:08.80 bitrate= 227.9kbits/s dup=0 drop=6 speed=0.898x    elapsed=0:00:10.31 frame=  130 fps= 13 q=42.0 size=     245KiB time=00:00:09.33 bitrate= 214.9kbits/s dup=0 drop=6 speed=0.905x    elapsed=0:00:10.82 frame=  137 fps= 13 q=35.5 size=     256KiB time=00:00:09.80 bitrate= 214.0kbits/s dup=0 drop=6 speed=0.905x    elapsed=0:00:11.34 frame=  145 fps= 13 q=41.8 size=     256KiB time=00:00:10.33 bitrate= 203.0kbits/s dup=0 drop=6 speed=0.911x    elapsed=0:00:11.85 frame=  153 fps= 13 q=40.7 size=     256KiB time=00:00:10.86 bitrate= 193.0kbits/s dup=0 drop=6 speed=0.916x    elapsed=0:00:12.37 frame=  161 fps= 13 q=41.9 size=     256KiB time=00:00:11.40 bitrate= 184.0kbits/s dup=0 drop=6 speed=0.921x    elapsed=0:00:12.88 frame=  168 fps= 13 q=40.9 size=     256KiB time=00:00:11.86 bitrate= 176.7kbits/s dup=0 drop=6 speed=0.921x    elapsed=0:00:13.40 frame=  176 fps= 13 q=41.9 size=     256KiB time=00:00:12.40 bitrate= 169.1kbits/s dup=0 drop=6 speed=0.925x    elapsed=0:00:13.92 frame=  184 fps= 13 q=41.7 size=     256KiB time=00:00:12.93 bitrate= 162.2kbits/s dup=0 drop=6 speed=0.929x    elapsed=0:00:14.43 frame=  191 fps= 13 q=41.9 size=     256KiB time=00:00:13.40 bitrate= 156.5kbits/s dup=0 drop=6 speed=0.928x    elapsed=0:00:14.95 frame=  199 fps= 13 q=41.9 size=     256KiB time=00:00:13.93 bitrate= 150.5kbits/s dup=0 drop=6 speed=0.932x    elapsed=0:00:15.46 frame=  207 fps= 13 q=33.4 size=     512KiB time=00:00:14.46 bitrate= 289.9kbits/s dup=0 drop=6 speed=0.935x    elapsed=0:00:15.98 frame=  215 fps= 13 q=42.0 size=     512KiB time=00:00:15.00 bitrate= 279.6kbits/s dup=0 drop=6 speed=0.938x    elapsed=0:00:16.49 frame=  222 fps= 13 q=32.8 size=     512KiB time=00:00:15.46 bitrate= 271.2kbits/s dup=0 drop=6 speed=0.937x    elapsed=0:00:17.01 frame=  230 fps= 14 q=41.9 size=     512KiB time=00:00:16.00 bitrate= 262.1kbits/s dup=0 drop=6 speed=0.94x    elapsed=0:00:17.53 frame=  238 fps= 14 q=40.8 size=     512KiB time=00:00:16.53 bitrate= 253.7kbits/s dup=0 drop=6 speed=0.943x    elapsed=0:00:18.04 frame=  245 fps= 14 q=41.9 size=     512KiB time=00:00:17.00 bitrate= 246.7kbits/s dup=0 drop=6 speed=0.942x    elapsed=0:00:18.56 frame=  253 fps= 14 q=40.8 size=     768KiB time=00:00:17.53 bitrate= 358.8kbits/s dup=0 drop=6 speed=0.945x    elapsed=0:00:19.07 frame=  261 fps= 14 q=41.9 size=     768KiB time=00:00:18.06 bitrate= 348.2kbits/s dup=0 drop=6 speed=0.947x    elapsed=0:00:19.59 frame=  269 fps= 14 q=41.8 size=     768KiB time=00:00:18.60 bitrate= 338.3kbits/s dup=0 drop=6 speed=0.949x    elapsed=0:00:20.10 frame=  277 fps= 14 q=37.4 size=     768KiB time=00:00:19.13 bitrate= 328.8kbits/s dup=0 drop=6 speed=0.952x    elapsed=0:00:20.62 frame=  284 fps= 14 q=41.9 size=     768KiB time=00:00:19.60 bitrate= 321.0kbits/s dup=0 drop=6 speed=0.95x    elapsed=0:00:21.13 frame=  292 fps= 14 q=37.4 size=     768KiB time=00:00:20.13 bitrate= 312.5kbits/s dup=0 drop=6 speed=0.952x    elapsed=0:00:21.65 frame=  300 fps= 14 q=41.9 size=     768KiB time=00:00:20.66 bitrate= 304.4kbits/s dup=0 drop=6 speed=0.954x    elapsed=0:00:22.17 frame=  308 fps= 14 q=40.7 size=     768KiB time=00:00:21.20 bitrate= 296.8kbits/s dup=0 drop=6 speed=0.956x    elapsed=0:00:22.68 frame=  315 fps= 14 q=41.9 size=     768KiB time=00:00:21.66 bitrate= 290.4kbits/s dup=0 drop=6 speed=0.955x    elapsed=0:00:23.20 frame=  323 fps= 14 q=40.7 size=     768KiB time=00:00:22.20 bitrate= 283.4kbits/s dup=0 drop=6 speed=0.957x    elapsed=0:00:23.71 frame=  331 fps= 14 q=41.9 size=     768KiB time=00:00:22.73 bitrate= 276.8kbits/s dup=0 drop=6 speed=0.959x    elapsed=0:00:24.23 frame=  338 fps= 14 q=40.8 size=     768KiB time=00:00:23.20 bitrate= 271.2kbits/s dup=0 drop=6 speed=0.957x    elapsed=0:00:24.74 frame=  346 fps= 14 q=41.9 size=     768KiB time=00:00:23.73 bitrate= 265.1kbits/s dup=0 drop=6 speed=0.959x    elapsed=0:00:25.26 frame=  354 fps= 14 q=41.8 size=     768KiB time=00:00:24.26 bitrate= 259.3kbits/s dup=0 drop=6 speed=0.961x    elapsed=0:00:25.77 frame=  361 fps= 14 q=41.8 size=     768KiB time=00:00:24.73 bitrate= 254.4kbits/s dup=0 drop=6 speed=0.959x    elapsed=0:00:26.29 frame=  369 fps= 14 q=41.9 size=     768KiB time=00:00:25.26 bitrate= 249.0kbits/s dup=0 drop=6 speed=0.961x    elapsed=0:00:26.81 frame=  377 fps= 14 q=36.9 size=     768KiB time=00:00:25.80 bitrate= 243.9kbits/s dup=0 drop=6 speed=0.962x    elapsed=0:00:27.32 frame=  385 fps= 14 q=41.9 size=     768KiB time=00:00:26.33 bitrate= 238.9kbits/s dup=0 drop=6 speed=0.964x    elapsed=0:00:27.84 frame=  393 fps= 14 q=40.8 size=     768KiB time=00:00:26.86 bitrate= 234.2kbits/s dup=0 drop=6 speed=0.965x    elapsed=0:00:28.35 frame=  400 fps= 14 q=41.9 size=     768KiB time=00:00:27.33 bitrate= 230.2kbits/s dup=0 drop=6 speed=0.964x    elapsed=0:00:28.87 frame=  408 fps= 14 q=40.8 size=     768KiB time=00:00:27.86 bitrate= 225.8kbits/s dup=0 drop=6 speed=0.965x    elapsed=0:00:29.38 frame=  416 fps= 14 q=41.9 size=     768KiB time=00:00:28.40 bitrate= 221.5kbits/s dup=0 drop=6 speed=0.966x    elapsed=0:00:29.90 frame=  423 fps= 14 q=40.8 size=     768KiB time=00:00:28.86 bitrate= 217.9kbits/s dup=0 drop=6 speed=0.965x    elapsed=0:00:30.42 frame=  431 fps= 14 q=41.8 size=     768KiB time=00:00:29.40 bitrate= 214.0kbits/s dup=0 drop=6 speed=0.966x    elapsed=0:00:30.93 frame=  439 fps= 14 q=41.9 size=     768KiB time=00:00:29.93 bitrate= 210.2kbits/s dup=0 drop=6 speed=0.968x    elapsed=0:00:31.45 frame=  447 fps= 14 q=37.5 size=     768KiB time=00:00:30.46 bitrate= 206.5kbits/s dup=0 drop=6 speed=0.969x    elapsed=0:00:31.96 frame=  455 fps= 14 q=41.9 size=     768KiB time=00:00:31.00 bitrate= 203.0kbits/s dup=0 drop=6 speed=0.97x    elapsed=0:00:32.48 frame=  462 fps= 14 q=37.2 size=    1024KiB time=00:00:31.46 bitrate= 266.6kbits/s dup=0 drop=6 speed=0.969x    elapsed=0:00:32.99 frame=  470 fps= 14 q=41.8 size=    1024KiB time=00:00:32.00 bitrate= 262.1kbits/s dup=0 drop=6 speed=0.97x    elapsed=0:00:33.51 frame=  478 fps= 14 q=40.8 size=    1024KiB time=00:00:32.53 bitrate= 257.8kbits/s dup=0 drop=6 speed=0.971x    elapsed=0:00:34.02 frame=  485 fps= 14 q=41.9 size=    1024KiB time=00:00:33.00 bitrate= 254.2kbits/s dup=0 drop=6 speed=0.97x    elapsed=0:00:34.54 frame=  493 fps= 14 q=40.9 size=    1024KiB time=00:00:33.53 bitrate= 250.2kbits/s dup=0 drop=6 speed=0.971x    elapsed=0:00:35.06 frame=  501 fps= 14 q=41.9 size=    1024KiB time=00:00:34.06 bitrate= 246.2kbits/s dup=0 drop=6 speed=0.972x    elapsed=0:00:35.57 frame=  508 fps= 14 q=40.8 size=    1024KiB time=00:00:34.53 bitrate= 242.9kbits/s dup=0 drop=6 speed=0.971x    elapsed=0:00:36.09 frame=  516 fps= 14 q=41.8 size=    1024KiB time=00:00:35.06 bitrate= 239.2kbits/s dup=0 drop=6 speed=0.972x    elapsed=0:00:36.60 frame=  524 fps= 14 q=41.8 size=    1024KiB time=00:00:35.60 bitrate= 235.6kbits/s dup=0 drop=6 speed=0.972x    elapsed=0:00:37.12 frame=  532 fps= 14 q=38.0 size=    1024KiB time=00:00:36.13 bitrate= 232.2kbits/s dup=0 drop=6 speed=0.973x    elapsed=0:00:37.63 frame=  539 fps= 14 q=41.9 size=    1024KiB time=00:00:36.60 bitrate= 229.2kbits/s dup=0 drop=6 speed=0.972x    elapsed=0:00:38.15 frame=  547 fps= 14 q=38.6 size=    1024KiB time=00:00:37.13 bitrate= 225.9kbits/s dup=0 drop=6 speed=0.973x    elapsed=0:00:38.67 frame=  555 fps= 14 q=41.9 size=    1024KiB time=00:00:37.66 bitrate= 222.7kbits/s dup=0 drop=6 speed=0.974x    elapsed=0:00:39.18 frame=  563 fps= 14 q=40.9 size=    1024KiB time=00:00:38.20 bitrate= 219.6kbits/s dup=0 drop=6 speed=0.975x    elapsed=0:00:39.70 frame=  571 fps= 14 q=41.9 size=    1280KiB time=00:00:38.73 bitrate= 270.7kbits/s dup=0 drop=6 speed=0.976x    elapsed=0:00:40.21 frame=  578 fps= 14 q=40.9 size=    1280KiB time=00:00:39.20 bitrate= 267.5kbits/s dup=0 drop=6 speed=0.975x    elapsed=0:00:40.73 frame=  586 fps= 14 q=41.9 size=    1280KiB time=00:00:39.73 bitrate= 263.9kbits/s dup=0 drop=6 speed=0.975x    elapsed=0:00:41.24 frame=  594 fps= 14 q=41.9 size=    1280KiB time=00:00:40.26 bitrate= 260.4kbits/s dup=0 drop=6 speed=0.976x    elapsed=0:00:41.76 frame=  601 fps= 14 q=41.9 size=    1280KiB time=00:00:40.73 bitrate= 257.4kbits/s dup=0 drop=6 speed=0.975x    elapsed=0:00:42.27 frame=  609 fps= 14 q=42.0 size=    1280KiB time=00:00:41.26 bitrate= 254.1kbits/s dup=0 drop=6 speed=0.976x    elapsed=0:00:42.79 frame=  617 fps= 14 q=34.1 size=    1280KiB time=00:00:41.80 bitrate= 250.9kbits/s dup=0 drop=6 speed=0.977x    elapsed=0:00:43.31 frame=  625 fps= 14 q=41.9 size=    1280KiB time=00:00:42.33 bitrate= 247.7kbits/s dup=0 drop=6 speed=0.977x    elapsed=0:00:43.82 frame=  632 fps= 14 q=37.0 size=    1280KiB time=00:00:42.80 bitrate= 245.0kbits/s dup=0 drop=6 speed=0.977x    elapsed=0:00:44.34 frame=  640 fps= 14 q=41.9 size=    1280KiB time=00:00:43.33 bitrate= 242.0kbits/s dup=0 drop=6 speed=0.977x    elapsed=0:00:44.85 frame=  648 fps= 14 q=40.8 size=    1280KiB time=00:00:43.86 bitrate= 239.0kbits/s dup=0 drop=6 speed=0.978x    elapsed=0:00:45.37 frame=  656 fps= 14 q=41.9 size=    1280KiB time=00:00:44.40 bitrate= 236.2kbits/s dup=0 drop=6 speed=0.979x    elapsed=0:00:45.88 frame=  663 fps= 14 q=40.8 size=    1280KiB time=00:00:44.86 bitrate= 233.7kbits/s dup=0 drop=6 speed=0.978x    elapsed=0:00:46.40 frame=  671 fps= 14 q=41.9 size=    1280KiB time=00:00:45.40 bitrate= 231.0kbits/s dup=0 drop=6 speed=0.978x    elapsed=0:00:46.92 frame=  679 fps= 14 q=41.9 size=    1280KiB time=00:00:45.93 bitrate= 228.3kbits/s dup=0 drop=6 speed=0.979x    elapsed=0:00:47.43 frame=  686 fps= 14 q=41.9 size=    1280KiB time=00:00:46.40 bitrate= 226.0kbits/s dup=0 drop=6 speed=0.978x    elapsed=0:00:47.95 frame=  694 fps= 14 q=41.9 size=    1280KiB time=00:00:46.93 bitrate= 223.4kbits/s dup=0 drop=6 speed=0.979x    elapsed=0:00:48.46 frame=  702 fps= 14 q=35.3 size=    1280KiB time=00:00:47.46 bitrate= 220.9kbits/s dup=0 drop=6 speed=0.979x    elapsed=0:00:48.98 frame=  710 fps= 14 q=42.0 size=    1536KiB time=00:00:48.00 bitrate= 262.1kbits/s dup=0 drop=6 speed=0.98x    elapsed=0:00:49.49 frame=  717 fps= 14 q=35.2 size=    1536KiB time=00:00:48.46 bitrate= 259.6kbits/s dup=0 drop=6 speed=0.979x    elapsed=0:00:50.01 frame=  725 fps= 14 q=41.9 size=    1536KiB time=00:00:49.00 bitrate= 256.8kbits/s dup=0 drop=6 speed=0.98x    elapsed=0:00:50.52 frame=  733 fps= 15 q=40.4 size=    1536KiB time=00:00:49.53 bitrate= 254.0kbits/s dup=0 drop=6 speed=0.98x    elapsed=0:00:51.04 frame=  741 fps= 15 q=42.2 size=    1536KiB time=00:00:50.06 bitrate= 251.3kbits/s dup=0 drop=6 speed=0.981x    elapsed=0:00:51.56 frame=  748 fps= 15 q=40.3 size=    1536KiB time=00:00:50.53 bitrate= 249.0kbits/s dup=0 drop=6 speed=0.98x    elapsed=0:00:52.07 frame=  756 fps= 15 q=41.9 size=    1536KiB time=00:00:51.06 bitrate= 246.4kbits/s dup=0 drop=6 speed=0.981x    elapsed=0:00:52.59 frame=  764 fps= 15 q=41.7 size=    1536KiB time=00:00:51.60 bitrate= 243.9kbits/s dup=0 drop=6 speed=0.981x    elapsed=0:00:53.10 frame=  772 fps= 15 q=34.1 size=    1536KiB time=00:00:52.13 bitrate= 241.4kbits/s dup=0 drop=6 speed=0.982x    elapsed=0:00:53.62 frame=  779 fps= 15 q=41.9 size=    1536KiB time=00:00:52.60 bitrate= 239.2kbits/s dup=0 drop=6 speed=0.981x    elapsed=0:00:54.14 frame=  787 fps= 15 q=35.4 size=    1536KiB time=00:00:53.13 bitrate= 236.8kbits/s dup=0 drop=6 speed=0.981x    elapsed=0:00:54.65 frame=  795 fps= 15 q=42.2 size=    1536KiB time=00:00:53.66 bitrate= 234.5kbits/s dup=0 drop=6 speed=0.982x    elapsed=0:00:55.17 frame=  803 fps= 15 q=40.5 size=    1536KiB time=00:00:54.20 bitrate= 232.2kbits/s dup=0 drop=6 speed=0.982x    elapsed=0:00:55.68 frame=  810 fps= 15 q=41.7 size=    1536KiB time=00:00:54.66 bitrate= 230.2kbits/s dup=0 drop=6 speed=0.982x    elapsed=0:00:56.20 frame=  818 fps= 15 q=40.4 size=    1792KiB time=00:00:55.20 bitrate= 265.9kbits/s dup=0 drop=6 speed=0.982x    elapsed=0:00:56.71 frame=  825 fps= 15 q=41.8 size=    1792KiB time=00:00:55.66 bitrate= 263.7kbits/s dup=0 drop=6 speed=0.981x    elapsed=0:00:57.23 frame=  833 fps= 15 q=40.4 size=    1792KiB time=00:00:56.20 bitrate= 261.2kbits/s dup=0 drop=6 speed=0.982x    elapsed=0:00:57.74 frame=  841 fps= 15 q=41.8 size=    1792KiB time=00:00:56.73 bitrate= 258.8kbits/s dup=0 drop=6 speed=0.982x    elapsed=0:00:58.26 frame=  849 fps= 15 q=41.7 size=    1792KiB time=00:00:57.26 bitrate= 256.3kbits/s dup=0 drop=6 speed=0.983x    elapsed=0:00:58.78 frame=  856 fps= 15 q=41.9 size=    1792KiB time=00:00:57.73 bitrate= 254.3kbits/s dup=0 drop=6 speed=0.982x    elapsed=0:00:59.29 frame=  863 fps= 15 q=40.7 size=    1792KiB time=00:00:58.20 bitrate= 252.2kbits/s dup=0 drop=7 speed=0.982x    elapsed=0:00:59.81 frame=  871 fps= 15 q=42.0 size=    1792KiB time=00:00:58.73 bitrate= 249.9kbits/s dup=0 drop=7 speed=0.982x    elapsed=0:01:00.32 frame=  879 fps= 15 q=42.0 size=    1792KiB time=00:00:59.26 bitrate= 247.7kbits/s dup=0 drop=7 speed=0.982x    elapsed=0:01:00.84 frame=  887 fps= 15 q=37.6 size=    2048KiB time=00:00:59.86 bitrate= 280.2kbits/s dup=0 drop=7 speed=0.984x    elapsed=0:01:01.36 frame=  894 fps= 15 q=42.0 size=    2048KiB time=00:01:00.33 bitrate= 278.1kbits/s dup=0 drop=7 speed=0.983x    elapsed=0:01:01.87 frame=  902 fps= 15 q=36.5 size=    2048KiB time=00:01:00.86 bitrate= 275.6kbits/s dup=0 drop=7 speed=0.984x    elapsed=0:01:02.38 frame=  910 fps= 15 q=41.9 size=    2048KiB time=00:01:01.40 bitrate= 273.2kbits/s dup=0 drop=7 speed=0.984x    elapsed=0:01:02.90 frame=  918 fps= 15 q=39.8 size=    2048KiB time=00:01:01.93 bitrate= 270.9kbits/s dup=0 drop=7 speed=0.985x    elapsed=0:01:03.42 frame=  925 fps= 15 q=41.9 size=    2048KiB time=00:01:02.40 bitrate= 268.9kbits/s dup=0 drop=7 speed=0.984x    elapsed=0:01:03.93 frame=  933 fps= 15 q=40.9 size=    2048KiB time=00:01:02.93 bitrate= 266.6kbits/s dup=0 drop=7 speed=0.984x    elapsed=0:01:04.45 frame=  941 fps= 15 q=41.9 size=    2048KiB time=00:01:03.46 bitrate= 264.3kbits/s dup=0 drop=7 speed=0.985x    elapsed=0:01:04.96 frame=  949 fps= 15 q=41.9 size=    2048KiB time=00:01:04.00 bitrate= 262.1kbits/s dup=0 drop=7 speed=0.985x    elapsed=0:01:05.48 frame=  956 fps= 15 q=41.9 size=    2048KiB time=00:01:04.46 bitrate= 260.2kbits/s dup=0 drop=7 speed=0.984x    elapsed=0:01:05.99 frame=  964 fps= 15 q=41.9 size=    2048KiB time=00:01:05.00 bitrate= 258.1kbits/s dup=0 drop=7 speed=0.985x    elapsed=0:01:06.51 frame=  972 fps= 15 q=39.6 size=    2048KiB time=00:01:05.53 bitrate= 256.0kbits/s dup=0 drop=7 speed=0.985x    elapsed=0:01:07.03 frame=  979 fps= 15 q=41.9 size=    2048KiB time=00:01:06.00 bitrate= 254.2kbits/s dup=0 drop=7 speed=0.985x    elapsed=0:01:07.54 frame=  987 fps= 15 q=39.6 size=    2048KiB time=00:01:06.53 bitrate= 252.2kbits/s dup=0 drop=7 speed=0.985x    